<svg xmlns="http://www.w3.org/2000/svg" viewBox="0 0 24 24" width="20" height="20" >
  <path d="M23.74,8.45,12.37.12a.62.62,0,0,0-.74,0L.25,8.45a.62.62,0,0,0,.74,1L12,1.4,23,9.46a.62.62,0,0,0,.74-1Z"/>
  <path d="M20.73,9.6a.62.62,0,0,0-.62.62v9.93h-5V14.73a3.12,3.12,0,1,0-6.24,0v5.42h-5V10.22a.62.62,0,0,0-1.25,0V20.77a.62.62,0,0,0,.62.62H9.51a.62.62,0,0,0,.62-.58.47.47,0,0,0,0,0v-6a1.87,1.87,0,0,1,3.74,0v6a.46.46,0,0,0,0,0,.62.62,0,0,0,.62.58h6.24a.62.62,0,0,0,.62-.62V10.22A.62.62,0,0,0,20.73,9.6Z"/>
</svg>
